<?xml version="1.0" encoding="UTF-8" standalone="no"?>
<!-- Created with Inkscape (http://www.inkscape.org/) -->

<svg
   version="1.1"
   id="svg25"
   xml:space="preserve"
   width="258.07867"
   height="258.07867"
   viewBox="0 0 258.07867 258.07867"
   sodipodi:docname="Creme_Rond_Dessus_Nov2016_Imp3.pdf"
   inkscape:version="1.1.1 (3bf5ae0d25, 2021-09-20)"
   xmlns:inkscape="http://www.inkscape.org/namespaces/inkscape"
   xmlns:sodipodi="http://sodipodi.sourceforge.net/DTD/sodipodi-0.dtd"
   xmlns="http://www.w3.org/2000/svg"
   xmlns:svg="http://www.w3.org/2000/svg"><defs
     id="defs29"><clipPath
       clipPathUnits="userSpaceOnUse"
       id="clipPath39"><path
         d="M 18.827,174.732 H 174.732 V 18.827 H 18.827 Z"
         id="path37" /></clipPath><clipPath
       clipPathUnits="userSpaceOnUse"
       id="clipPath887"><path
         d="m 14.5,180.059 16.983,0.785 v -1.571 z"
         id="path885" /></clipPath><clipPath
       clipPathUnits="userSpaceOnUse"
       id="clipPath899"><path
         d="m 14.485,179.885 16.861,-2.176 -0.273,-1.546 z"
         id="path897" /></clipPath><clipPath
       clipPathUnits="userSpaceOnUse"
       id="clipPath911"><path
         d="M 14.44,179.717 30.667,174.646 30.13,173.17 Z"
         id="path909" /></clipPath><clipPath
       clipPathUnits="userSpaceOnUse"
       id="clipPath923"><path
         d="m 14.366,179.559 15.1,-7.812 -0.785,-1.36 z"
         id="path921" /></clipPath><clipPath
       clipPathUnits="userSpaceOnUse"
       id="clipPath935"><path
         d="M 14.266,179.416 27.78,169.101 26.771,167.898 Z"
         id="path933" /></clipPath><clipPath
       clipPathUnits="userSpaceOnUse"
       id="clipPath947"><path
         d="m 14.143,179.293 11.518,-12.505 -1.203,-1.01 z"
         id="path945" /></clipPath><clipPath
       clipPathUnits="userSpaceOnUse"
       id="clipPath959"><path
         d="m 14,179.193 9.171,-14.315 -1.36,-0.786 z"
         id="path957" /></clipPath><clipPath
       clipPathUnits="userSpaceOnUse"
       id="clipPath971"><path
         d="m 13.842,179.119 6.546,-15.69 -1.475,-0.537 z"
         id="path969" /></clipPath><clipPath
       clipPathUnits="userSpaceOnUse"
       id="clipPath983"><path
         d="m 13.674,179.074 3.722,-16.589 -1.547,-0.272 z"
         id="path981" /></clipPath><clipPath
       clipPathUnits="userSpaceOnUse"
       id="clipPath995"><path
         d="m 13.5,179.059 0.785,-16.983 h -1.57 z"
         id="path993" /></clipPath><clipPath
       clipPathUnits="userSpaceOnUse"
       id="clipPath1007"><path
         d="m 13.326,179.074 -2.175,-16.861 -1.547,0.272 z"
         id="path1005" /></clipPath><clipPath
       clipPathUnits="userSpaceOnUse"
       id="clipPath1019"><path
         d="M 13.158,179.119 8.087,162.892 6.612,163.429 Z"
         id="path1017" /></clipPath><clipPath
       clipPathUnits="userSpaceOnUse"
       id="clipPath1031"><path
         d="m 13,179.193 -7.811,-15.101 -1.36,0.786 z"
         id="path1029" /></clipPath><clipPath
       clipPathUnits="userSpaceOnUse"
       id="clipPath1043"><path
         d="M 12.857,179.293 2.542,165.778 1.339,166.788 Z"
         id="path1041" /></clipPath><clipPath
       clipPathUnits="userSpaceOnUse"
       id="clipPath1055"><path
         d="M 12.734,179.416 0.229,167.898 -0.78,169.101 Z"
         id="path1053" /></clipPath><clipPath
       clipPathUnits="userSpaceOnUse"
       id="clipPath1067"><path
         d="m 12.634,179.559 -14.315,-9.172 -0.785,1.36 z"
         id="path1065" /></clipPath><clipPath
       clipPathUnits="userSpaceOnUse"
       id="clipPath1079"><path
         d="m 12.56,179.717 -15.69,-6.547 -0.537,1.476 z"
         id="path1077" /></clipPath><clipPath
       clipPathUnits="userSpaceOnUse"
       id="clipPath1091"><path
         d="m 12.515,179.885 -16.588,-3.722 -0.273,1.546 z"
         id="path1089" /></clipPath><clipPath
       clipPathUnits="userSpaceOnUse"
       id="clipPath1103"><path
         d="m 12.5,180.059 -16.983,-0.786 v 1.571 z"
         id="path1101" /></clipPath><clipPath
       clipPathUnits="userSpaceOnUse"
       id="clipPath1115"><path
         d="m 12.515,180.232 -16.861,2.176 0.273,1.547 z"
         id="path1113" /></clipPath><clipPath
       clipPathUnits="userSpaceOnUse"
       id="clipPath1127"><path
         d="m 12.56,180.401 -16.227,5.07 0.537,1.476 z"
         id="path1125" /></clipPath><clipPath
       clipPathUnits="userSpaceOnUse"
       id="clipPath1139"><path
         d="m 12.634,180.559 -15.1,7.811 0.785,1.36 z"
         id="path1137" /></clipPath><clipPath
       clipPathUnits="userSpaceOnUse"
       id="clipPath1151"><path
         d="m 12.734,180.701 -13.514,10.315 1.009,1.203 z"
         id="path1149" /></clipPath><clipPath
       clipPathUnits="userSpaceOnUse"
       id="clipPath1163"><path
         d="M 12.857,180.825 1.339,193.33 2.542,194.339 Z"
         id="path1161" /></clipPath><clipPath
       clipPathUnits="userSpaceOnUse"
       id="clipPath1175"><path
         d="m 13,180.925 -9.171,14.315 1.36,0.785 z"
         id="path1173" /></clipPath><clipPath
       clipPathUnits="userSpaceOnUse"
       id="clipPath1187"><path
         d="m 13.158,180.998 -6.546,15.69 1.475,0.537 z"
         id="path1185" /></clipPath><clipPath
       clipPathUnits="userSpaceOnUse"
       id="clipPath1199"><path
         d="m 13.326,181.043 -3.722,16.589 1.547,0.273 z"
         id="path1197" /></clipPath><clipPath
       clipPathUnits="userSpaceOnUse"
       id="clipPath1211"><path
         d="m 13.5,181.059 -0.785,16.982 h 1.57 z"
         id="path1209" /></clipPath><clipPath
       clipPathUnits="userSpaceOnUse"
       id="clipPath1223"><path
         d="m 13.674,181.043 2.175,16.862 1.547,-0.273 z"
         id="path1221" /></clipPath><clipPath
       clipPathUnits="userSpaceOnUse"
       id="clipPath1235"><path
         d="m 13.842,180.998 5.071,16.227 1.475,-0.537 z"
         id="path1233" /></clipPath><clipPath
       clipPathUnits="userSpaceOnUse"
       id="clipPath1247"><path
         d="m 14,180.925 7.811,15.1 1.36,-0.785 z"
         id="path1245" /></clipPath><clipPath
       clipPathUnits="userSpaceOnUse"
       id="clipPath1259"><path
         d="m 14.143,180.825 10.315,13.514 1.203,-1.009 z"
         id="path1257" /></clipPath><clipPath
       clipPathUnits="userSpaceOnUse"
       id="clipPath1271"><path
         d="m 14.266,180.701 12.505,11.518 1.009,-1.203 z"
         id="path1269" /></clipPath><clipPath
       clipPathUnits="userSpaceOnUse"
       id="clipPath1283"><path
         d="m 14.366,180.559 14.315,9.171 0.785,-1.36 z"
         id="path1281" /></clipPath><clipPath
       clipPathUnits="userSpaceOnUse"
       id="clipPath1295"><path
         d="m 14.44,180.401 15.69,6.546 0.537,-1.476 z"
         id="path1293" /></clipPath><clipPath
       clipPathUnits="userSpaceOnUse"
       id="clipPath1307"><path
         d="m 14.485,180.232 16.588,3.722 0.273,-1.546 z"
         id="path1305" /></clipPath><clipPath
       clipPathUnits="userSpaceOnUse"
       id="clipPath1327"><path
         d="m 181.059,13.5 16.982,0.785 v -1.57 z"
         id="path1325" /></clipPath><clipPath
       clipPathUnits="userSpaceOnUse"
       id="clipPath1339"><path
         d="m 181.043,13.326 16.862,-2.175 -0.273,-1.547 z"
         id="path1337" /></clipPath><clipPath
       clipPathUnits="userSpaceOnUse"
       id="clipPath1351"><path
         d="M 180.998,13.158 197.225,8.087 196.688,6.612 Z"
         id="path1349" /></clipPath><clipPath
       clipPathUnits="userSpaceOnUse"
       id="clipPath1363"><path
         d="m 180.925,13 15.1,-7.811 -0.785,-1.36 z"
         id="path1361" /></clipPath><clipPath
       clipPathUnits="userSpaceOnUse"
       id="clipPath1375"><path
         d="M 180.825,12.857 194.339,2.542 193.33,1.339 Z"
         id="path1373" /></clipPath><clipPath
       clipPathUnits="userSpaceOnUse"
       id="clipPath1387"><path
         d="M 180.701,12.734 192.219,0.229 191.016,-0.78 Z"
         id="path1385" /></clipPath><clipPath
       clipPathUnits="userSpaceOnUse"
       id="clipPath1399"><path
         d="m 180.559,12.634 9.171,-14.315 -1.36,-0.785 z"
         id="path1397" /></clipPath><clipPath
       clipPathUnits="userSpaceOnUse"
       id="clipPath1411"><path
         d="m 180.401,12.56 6.546,-15.69 -1.476,-0.537 z"
         id="path1409" /></clipPath><clipPath
       clipPathUnits="userSpaceOnUse"
       id="clipPath1423"><path
         d="m 180.232,12.515 3.723,-16.588 -1.547,-0.273 z"
         id="path1421" /></clipPath><clipPath
       clipPathUnits="userSpaceOnUse"
       id="clipPath1435"><path
         d="m 180.059,12.5 0.785,-16.983 h -1.571 z"
         id="path1433" /></clipPath><clipPath
       clipPathUnits="userSpaceOnUse"
       id="clipPath1447"><path
         d="m 179.885,12.515 -2.176,-16.861 -1.546,0.273 z"
         id="path1445" /></clipPath><clipPath
       clipPathUnits="userSpaceOnUse"
       id="clipPath1459"><path
         d="M 179.717,12.56 174.646,-3.667 173.17,-3.13 Z"
         id="path1457" /></clipPath><clipPath
       clipPathUnits="userSpaceOnUse"
       id="clipPath1471"><path
         d="m 179.559,12.634 -7.812,-15.1 -1.36,0.785 z"
         id="path1469" /></clipPath><clipPath
       clipPathUnits="userSpaceOnUse"
       id="clipPath1483"><path
         d="M 179.416,12.734 169.101,-0.78 167.898,0.229 Z"
         id="path1481" /></clipPath><clipPath
       clipPathUnits="userSpaceOnUse"
       id="clipPath1495"><path
         d="M 179.293,12.857 166.788,1.339 165.778,2.542 Z"
         id="path1493" /></clipPath><clipPath
       clipPathUnits="userSpaceOnUse"
       id="clipPath1507"><path
         d="m 179.193,13 -14.315,-9.171 -0.786,1.36 z"
         id="path1505" /></clipPath><clipPath
       clipPathUnits="userSpaceOnUse"
       id="clipPath1519"><path
         d="m 179.119,13.158 -15.69,-6.546 -0.537,1.475 z"
         id="path1517" /></clipPath><clipPath
       clipPathUnits="userSpaceOnUse"
       id="clipPath1531"><path
         d="m 179.074,13.326 -16.589,-3.722 -0.272,1.547 z"
         id="path1529" /></clipPath><clipPath
       clipPathUnits="userSpaceOnUse"
       id="clipPath1543"><path
         d="m 179.059,13.5 -16.983,-0.785 v 1.57 z"
         id="path1541" /></clipPath><clipPath
       clipPathUnits="userSpaceOnUse"
       id="clipPath1555"><path
         d="m 179.074,13.674 -16.861,2.175 0.272,1.547 z"
         id="path1553" /></clipPath><clipPath
       clipPathUnits="userSpaceOnUse"
       id="clipPath1567"><path
         d="m 179.119,13.842 -16.227,5.071 0.537,1.475 z"
         id="path1565" /></clipPath><clipPath
       clipPathUnits="userSpaceOnUse"
       id="clipPath1579"><path
         d="m 179.193,14 -15.101,7.811 0.786,1.36 z"
         id="path1577" /></clipPath><clipPath
       clipPathUnits="userSpaceOnUse"
       id="clipPath1591"><path
         d="m 179.293,14.143 -13.515,10.315 1.01,1.203 z"
         id="path1589" /></clipPath><clipPath
       clipPathUnits="userSpaceOnUse"
       id="clipPath1603"><path
         d="m 179.416,14.266 -11.518,12.505 1.203,1.009 z"
         id="path1601" /></clipPath><clipPath
       clipPathUnits="userSpaceOnUse"
       id="clipPath1615"><path
         d="m 179.559,14.366 -9.172,14.315 1.36,0.785 z"
         id="path1613" /></clipPath><clipPath
       clipPathUnits="userSpaceOnUse"
       id="clipPath1627"><path
         d="m 179.717,14.44 -6.547,15.69 1.476,0.537 z"
         id="path1625" /></clipPath><clipPath
       clipPathUnits="userSpaceOnUse"
       id="clipPath1639"><path
         d="m 179.885,14.485 -3.722,16.588 1.546,0.273 z"
         id="path1637" /></clipPath><clipPath
       clipPathUnits="userSpaceOnUse"
       id="clipPath1651"><path
         d="m 180.059,14.5 -0.786,16.983 h 1.571 z"
         id="path1649" /></clipPath><clipPath
       clipPathUnits="userSpaceOnUse"
       id="clipPath1663"><path
         d="m 180.232,14.485 2.176,16.861 1.547,-0.273 z"
         id="path1661" /></clipPath><clipPath
       clipPathUnits="userSpaceOnUse"
       id="clipPath1675"><path
         d="m 180.401,14.44 5.07,16.227 1.476,-0.537 z"
         id="path1673" /></clipPath><clipPath
       clipPathUnits="userSpaceOnUse"
       id="clipPath1687"><path
         d="m 180.559,14.366 7.811,15.1 1.36,-0.785 z"
         id="path1685" /></clipPath><clipPath
       clipPathUnits="userSpaceOnUse"
       id="clipPath1699"><path
         d="m 180.701,14.266 10.315,13.514 1.203,-1.009 z"
         id="path1697" /></clipPath><clipPath
       clipPathUnits="userSpaceOnUse"
       id="clipPath1711"><path
         d="m 180.825,14.143 12.505,11.518 1.009,-1.203 z"
         id="path1709" /></clipPath><clipPath
       clipPathUnits="userSpaceOnUse"
       id="clipPath1723"><path
         d="m 180.925,14 14.315,9.171 0.785,-1.36 z"
         id="path1721" /></clipPath><clipPath
       clipPathUnits="userSpaceOnUse"
       id="clipPath1735"><path
         d="m 180.998,13.842 15.69,6.546 0.537,-1.475 z"
         id="path1733" /></clipPath><clipPath
       clipPathUnits="userSpaceOnUse"
       id="clipPath1747"><path
         d="m 181.043,13.674 16.589,3.722 0.273,-1.547 z"
         id="path1745" /></clipPath></defs><sodipodi:namedview
     id="namedview27"
     pagecolor="#ffffff"
     bordercolor="#666666"
     borderopacity="1.0"
     inkscape:pageshadow="2"
     inkscape:pageopacity="0.0"
     inkscape:pagecheckerboard="0"
     showgrid="false"
     inkscape:zoom="1.937776"
     inkscape:cx="105.0173"
     inkscape:cy="139.85105"
     inkscape:window-width="1600"
     inkscape:window-height="831"
     inkscape:window-x="0"
     inkscape:window-y="0"
     inkscape:window-maximized="1"
     inkscape:current-layer="g35"
     inkscape:snap-bbox="true" /><g
     id="g31"
     inkscape:groupmode="layer"
     inkscape:label="Creme_Rond_Dessus_Nov2016_Imp3"
     transform="matrix(1.3333333,0,0,-1.3333333,0,258.07867)"><g
       id="g33"
       transform="translate(-0.2005052,-1.7085304)"
       inkscape:export-filename="/home/ubique/Téléchargements/cremedescremeslogo.png"
       inkscape:export-xdpi="600"
       inkscape:export-ydpi="600"><g
         id="g35"
         clip-path="url(#clipPath39)"><g
           id="g4145"
           inkscape:export-filename="/home/ubique/Téléchargements/logocremedescremes.png"
           inkscape:export-xdpi="600"
           inkscape:export-ydpi="600"
           transform="matrix(2.5821087,0,0,2.5732636,-160.17714,-160.67983)"><g
             id="g125"
             transform="translate(103.3701,83.2646)"><path
               d="M 0,0 C 1.602,1.041 2.926,2.379 4.186,3.838 3.643,4.076 3.16,4.291 2.68,4.506 1.629,1.951 1.643,2.271 0,0 m 8.131,19.485 c 0.623,0.006 1.232,0.006 1.842,0.029 0.056,0.002 0.138,0.153 0.144,0.238 0.024,0.319 0.004,0.642 0.028,0.961 0.091,1.27 0.363,2.53 0.253,3.811 -0.035,0.384 -0.101,0.766 -0.152,1.146 -0.035,10e-4 -0.072,10e-4 -0.107,10e-4 C 10.029,23.44 9.262,21.425 8.131,19.485 M -10.11,33.866 c -0.529,0.461 -1.038,0.943 -1.587,1.378 -0.845,0.667 -1.821,1.09 -2.823,1.459 -1.141,0.42 -2.298,0.535 -3.511,0.313 -0.653,-0.121 -0.987,-0.552 -1.226,-1.053 -0.486,-1.007 -0.265,-1.994 0.262,-2.927 0.203,-0.358 0.505,-0.683 0.141,-1.108 -0.03,-0.037 -0.011,-0.116 -0.024,-0.172 -0.066,-0.247 -0.272,-0.421 -0.483,-0.436 -0.277,-0.021 -0.566,0.089 -0.847,0.138 -0.144,0.027 -0.287,0.053 -0.427,0.063 -0.477,0.034 -0.787,-0.317 -1.145,-0.528 -1.233,-0.718 -1.464,-2.12 -0.913,-3.199 0.32,-0.633 0.773,-1.224 1.402,-1.62 0.465,-0.294 0.935,-0.582 1.521,-0.586 0.257,-0.002 0.399,-0.218 0.38,-0.439 -0.023,-0.235 -0.097,-0.512 -0.248,-0.68 -0.373,-0.406 -0.758,-0.807 -0.871,-1.357 -0.316,-1.53 -0.227,-3.033 0.386,-4.49 0.511,-1.215 1.376,-2.145 2.407,-2.929 0.371,-0.281 0.786,-0.51 1.198,-0.731 0.272,-0.147 0.566,-0.282 0.87,-0.338 1.148,-0.215 2.312,-0.38 3.464,-0.603 0.38,-0.072 0.602,0.079 0.846,0.312 0.81,0.774 1.51,1.635 2,2.645 0.345,0.707 0.705,1.424 0.915,2.177 0.369,1.323 0.318,2.702 0.4,4.064 0.055,0.908 0.142,1.834 0.366,2.712 0.215,0.84 0.635,1.631 0.951,2.446 0.043,0.113 0.057,0.271 0.009,0.375 -0.223,0.476 -0.47,0.941 -0.716,1.403 -0.723,1.362 -1.677,2.555 -2.697,3.711 M 6.146,5.221 C 6.15,5.187 6.154,5.158 6.158,5.127 6.516,5.18 6.914,5.148 7.211,5.307 7.422,5.418 7.623,5.463 7.832,5.52 c 0.074,0.021 0.135,0.074 0.207,0.091 0.481,0.108 0.822,0.53 1.367,0.543 0.463,0.014 1.045,-0.297 1.106,-0.75 0.17,-1.34 1.031,-2.084 2.203,-2.56 0.453,-0.182 0.916,-0.231 1.402,-0.098 0.807,0.217 1.287,0.834 1.76,1.436 0.434,0.545 0.641,1.197 0.635,1.906 -0.002,0.219 0.154,0.332 0.336,0.338 0.39,0.019 0.773,-0.067 0.978,-0.43 0.346,-0.594 0.881,-0.92 1.485,-1.176 0.701,-0.295 1.412,-0.527 2.185,-0.242 0.428,0.156 0.856,0.313 1.279,0.483 0.871,0.351 1.473,0.953 1.793,1.843 0.287,0.789 0.284,1.543 -0.107,2.289 -0.881,1.688 -2.012,3.188 -3.436,4.449 -0.818,0.719 -1.652,1.442 -2.578,2.013 -1.59,0.973 -3.363,1.531 -5.179,1.955 -0.905,0.212 -1.803,0.41 -2.733,0.459 -1.51,0.077 -2.976,-0.2 -4.447,-0.466 C 5.197,17.442 4.426,16.991 3.668,16.525 2.621,15.88 1.709,15.108 1.176,13.962 0.785,13.114 0.459,12.264 0.418,11.311 0.375,10.438 0.623,9.631 0.893,8.83 1.088,8.246 1.338,7.654 1.689,7.148 2.471,6.02 3.654,5.516 4.98,5.354 5.494,5.289 6.02,5.32 6.539,5.305 6.541,5.293 6.543,5.279 6.545,5.266 6.414,5.25 6.279,5.238 6.146,5.221 m -38.482,9.996 c -0.077,-0.288 -0.108,-0.467 -0.171,-0.634 -0.203,-0.51 -0.295,-1.008 0.028,-1.512 0.12,-0.187 0.201,-0.398 0.279,-0.61 0.47,-1.273 1.072,-2.482 1.8,-3.631 0.791,-1.236 1.524,-2.519 2.56,-3.586 0.59,-0.605 1.125,-1.269 1.732,-1.859 0.895,-0.867 1.781,-1.74 2.817,-2.461 1.505,-1.045 3.082,-1.928 4.779,-2.621 0.972,-0.399 1.969,-0.662 3.012,-0.801 1.541,-0.211 3.074,-0.457 4.63,-0.479 1.123,-0.013 2.246,0.014 3.37,0.071 0.428,0.021 0.88,0.119 1.275,0.287 0.815,0.351 1.612,0.746 2.389,1.172 0.51,0.279 1.022,0.588 1.451,0.978 0.858,0.778 1.641,1.641 2.297,2.612 C 0.537,3.061 1.191,3.959 1.436,5.074 1.484,5.316 1.529,5.527 1.273,5.695 1.127,5.789 1.014,5.932 0.895,6.061 0.316,6.674 -0.029,7.428 -0.34,8.203 c -0.639,1.572 -0.959,3.188 -0.57,4.882 0.265,1.163 0.789,2.207 1.558,3.112 0.684,0.804 1.561,1.381 2.473,1.894 0.994,0.559 2.049,0.971 3.203,1.053 0.666,0.045 0.881,0.545 0.977,1.019 0.031,0.162 0.058,0.329 0.121,0.478 0.273,0.635 0.619,1.245 0.822,1.901 0.256,0.832 0.447,1.694 0.578,2.554 0.221,1.442 0.399,2.887 -0.164,4.321 -0.176,0.449 -0.334,0.889 -0.595,1.297 -0.192,0.296 -0.397,0.635 -0.424,0.968 -0.063,0.712 -0.055,1.436 -0.008,2.15 0.068,0.914 0.219,1.821 0.295,2.732 0.027,0.371 -0.035,0.75 -0.063,1.212 C 7.738,37.637 7.672,37.579 7.627,37.509 7.432,37.217 7.244,36.923 7.053,36.628 6.361,35.556 5.668,34.482 4.971,33.411 4.531,32.734 4.051,32.076 3.264,31.783 2.406,31.465 1.529,31.194 0.641,30.957 -0.074,30.763 -0.811,30.66 -1.539,30.504 -2.174,30.369 -2.74,30.069 -3.318,29.786 -4.09,29.411 -4.65,28.815 -5.121,28.159 c -0.365,-0.511 -0.573,-1.141 -0.83,-1.729 -0.166,-0.384 -0.356,-0.772 -0.43,-1.178 -0.142,-0.761 -0.23,-1.535 -0.305,-2.308 -0.122,-1.259 -0.04,-2.528 -0.289,-3.783 -0.169,-0.854 -0.446,-1.66 -0.821,-2.431 -0.671,-1.376 -1.566,-2.583 -2.764,-3.581 -1.144,-0.954 -2.428,-1.393 -3.898,-1.395 -0.947,0 -1.862,0.129 -2.755,0.453 -0.391,0.147 -0.816,0.205 -1.212,0.343 -1.129,0.389 -2.095,1.044 -3.003,1.807 -0.823,0.69 -1.713,1.311 -2.342,2.192 -0.674,0.94 -1.273,1.934 -1.923,2.893 -0.245,0.361 -0.512,0.713 -0.819,1.016 -0.277,0.273 -0.529,0.196 -0.725,-0.137 -0.018,-0.033 -0.031,-0.077 -0.058,-0.098 -0.326,-0.228 -0.342,-0.585 -0.26,-0.89 0.173,-0.645 0.339,-1.317 0.66,-1.894 0.516,-0.922 1.103,-1.816 1.757,-2.648 0.863,-1.095 1.8,-2.136 2.74,-3.166 0.757,-0.828 1.53,-1.646 2.363,-2.395 0.818,-0.736 1.612,-1.48 2.176,-2.433 0.347,-0.584 0.408,-1.19 -0.004,-1.781 -0.171,-0.243 -0.328,-0.516 -0.555,-0.696 -0.261,-0.209 -0.575,-0.422 -0.893,-0.47 -0.771,-0.123 -1.489,0.22 -2.224,0.394 -0.231,0.057 -0.434,0.225 -0.657,0.315 -1.262,0.535 -2.35,1.336 -3.317,2.273 -0.868,0.842 -1.687,1.734 -2.449,2.67 -0.837,1.025 -1.599,2.115 -2.374,3.191 -0.468,0.646 -0.888,1.329 -1.361,1.975 -0.151,0.206 -0.395,0.344 -0.643,0.549 m 43.524,4.246 c 0.921,-0.208 1.884,-0.389 2.822,-0.646 0.89,-0.249 1.771,-0.545 2.633,-0.88 0.789,-0.308 1.595,-0.619 2.304,-1.065 0.953,-0.601 1.852,-1.301 2.721,-2.019 0.644,-0.534 1.248,-1.128 1.799,-1.761 0.998,-1.149 1.957,-2.34 2.504,-3.787 C 26.51,7.879 26.277,6.529 25.492,5.254 25.193,4.766 24.75,4.418 24.248,4.174 23.434,3.781 22.654,3.324 21.736,3.152 20.846,2.986 20.023,3.113 19.225,3.473 18.703,3.705 18.199,3.979 17.654,4.252 17.615,4.174 17.555,4.055 17.496,3.939 17.037,3.031 16.377,2.289 15.518,1.76 14.617,1.205 13.617,1.113 12.637,1.48 11.51,1.908 10.574,2.623 9.914,3.648 9.764,3.885 9.664,4.152 9.527,4.432 9.43,4.389 9.342,4.359 9.258,4.314 8.219,3.766 7.098,3.604 5.937,3.643 5.842,3.646 5.705,3.6 5.65,3.531 5.391,3.182 5.193,2.773 4.889,2.471 3.891,1.469 2.898,0.451 1.824,-0.467 0.629,-1.479 -0.76,-2.215 -2.189,-2.859 c -1.553,-0.702 -3.176,-1.202 -4.869,-1.342 -1.455,-0.121 -2.932,-0.153 -4.39,-0.076 -1.373,0.072 -2.734,0.334 -4.096,0.525 -0.737,0.104 -1.475,0.201 -2.198,0.369 -0.479,0.108 -0.925,0.356 -1.397,0.51 -1.339,0.426 -2.576,1.076 -3.751,1.818 -1.396,0.885 -2.701,1.889 -3.786,3.155 -0.463,0.541 -0.985,1.023 -1.475,1.543 -1.027,1.089 -1.923,2.279 -2.672,3.574 -0.625,1.078 -1.272,2.144 -1.838,3.254 -0.417,0.822 -0.731,1.695 -1.052,2.564 -0.082,0.228 -0.01,0.511 -0.013,0.769 -0.004,0.16 0.017,0.329 -0.03,0.472 -0.251,0.793 0.269,1.982 1.038,2.263 0.201,0.075 0.465,0.082 0.676,0.024 0.977,-0.261 1.583,-0.984 2.05,-1.814 0.915,-1.633 2.007,-3.132 3.177,-4.591 1.006,-1.256 2.124,-2.392 3.406,-3.361 0.566,-0.422 1.231,-0.713 1.856,-1.049 0.59,-0.316 1.235,-0.434 1.888,-0.48 0.199,-0.014 0.511,0.031 0.58,0.154 0.094,0.17 0.067,0.471 -0.023,0.656 -0.281,0.572 -0.702,1.053 -1.194,1.465 -1.49,1.242 -2.779,2.676 -4.02,4.158 -0.595,0.711 -1.229,1.39 -1.789,2.129 -0.599,0.794 -1.126,1.649 -1.699,2.468 -0.506,0.721 -0.649,1.578 -0.941,2.379 -0.076,0.206 -0.053,0.463 -0.022,0.686 0.079,0.546 0.175,1.079 0.398,1.606 0.321,0.762 1.366,1.148 2.124,0.854 0.709,-0.278 1.166,-0.816 1.558,-1.441 0.793,-1.26 1.473,-2.599 2.511,-3.687 0.574,-0.605 1.226,-1.138 1.855,-1.689 0.719,-0.63 1.528,-1.117 2.424,-1.44 0.459,-0.162 0.938,-0.28 1.417,-0.371 0.998,-0.188 2.004,-0.293 3.103,-0.052 -0.504,0.078 -0.924,0.142 -1.345,0.21 -0.298,0.052 -0.596,0.085 -0.886,0.167 -1.477,0.402 -2.852,1.027 -4.031,2.013 -1.111,0.93 -1.847,2.124 -2.272,3.51 -0.295,0.962 -0.424,1.945 -0.365,2.943 0.058,0.989 0.26,1.951 0.852,2.803 -0.362,0.227 -0.719,0.435 -1.059,0.67 -0.616,0.43 -1.061,1.023 -1.504,1.617 -0.978,1.309 -0.674,3.25 0.297,4.356 0.459,0.523 1.69,1.464 2.877,1.409 -0.081,0.428 -0.177,0.85 -0.233,1.278 -0.106,0.778 0.06,1.513 0.378,2.226 0.572,1.275 1.674,1.828 2.937,2.137 1.957,0.479 3.763,-0.043 5.477,-0.955 1.743,-0.927 3.14,-2.266 4.375,-3.788 0.885,-1.087 1.609,-2.273 2.192,-3.547 0.044,-0.095 0.102,-0.186 0.195,-0.35 0.254,0.231 0.461,0.466 0.713,0.635 1.228,0.841 2.597,1.326 4.076,1.533 1.133,0.159 2.246,0.428 3.305,0.872 0.734,0.306 1.222,0.889 1.656,1.522 0.646,0.952 1.281,1.913 1.935,2.857 0.346,0.497 0.721,0.969 1.088,1.45 0.065,0.086 0.145,0.159 0.227,0.229 0.244,0.209 0.496,0.346 0.853,0.249 C 8.789,39.071 9.127,38.858 9.16,38.396 9.219,37.629 9.285,36.856 9.242,36.092 9.178,34.907 9.027,33.726 8.92,32.543 8.863,31.922 9.102,31.404 9.432,30.882 c 0.425,-0.671 0.83,-1.369 1.129,-2.102 0.373,-0.906 0.666,-1.849 0.918,-2.798 0.253,-0.947 0.285,-1.929 0.171,-2.906 -0.142,-1.218 -0.308,-2.429 -0.462,-3.613"
               style="fill:#231f20;fill-opacity:1;fill-rule:evenodd;stroke:none"
               id="path127" /></g><g
             id="g129"
             transform="translate(108.7764,110.2021)"><path
               d="m 0,0 c -0.098,-0.25 -0.193,-0.454 -0.254,-0.667 -0.019,-0.074 0.014,-0.188 0.063,-0.253 0.121,-0.166 0.269,-0.309 0.392,-0.472 0.19,-0.241 0.203,-0.52 0.123,-0.804 -0.07,-0.246 -0.248,-0.311 -0.461,-0.169 -0.224,0.147 -0.445,0.301 -0.701,0.475 -0.176,-0.282 -0.357,-0.61 -0.574,-0.914 -0.221,-0.308 -0.359,-0.574 -0.029,-0.91 0.16,-0.164 0.279,-0.394 0.183,-0.669 -0.086,-0.236 -0.258,-0.318 -0.472,-0.193 -0.19,0.109 -0.379,0.221 -0.579,0.317 -0.052,0.025 -0.146,0.014 -0.201,-0.019 -0.125,-0.073 -0.236,-0.17 -0.351,-0.259 -0.336,-0.237 -0.612,-0.205 -0.862,0.1 -0.125,0.152 -0.074,0.493 0.141,0.717 1.047,1.098 1.748,2.409 2.309,3.798 0.152,0.38 0.169,0.814 0.244,1.223 0.031,0.172 0.035,0.348 0.084,0.514 0.08,0.289 0.383,0.352 0.738,0.143 C 0.057,1.803 0.285,1.611 0.248,1.247 0.24,1.163 0.311,1.052 0.377,0.984 0.553,0.801 0.75,0.642 0.924,0.459 0.984,0.394 1.027,0.291 1.035,0.202 1.076,-0.209 0.797,-0.397 0.408,-0.23 0.273,-0.174 0.156,-0.088 0,0"
               style="fill:#231f20;fill-opacity:1;fill-rule:evenodd;stroke:none"
               id="path131" /></g></g></g></g></g></svg>
